{"title":"java.heat.2013.BRRip XViD juggs","uid":8241254,"size":747646093,"categoryP":"video","categoryS":"movies","magnet":"?xt=urn:btih:6bb9842c2c51409cde04e88ef8724dd9fb81e146&amp;dn=java.heat.2013.BRRip+XViD+juggs&amp;tr=udp%3A%2F%2Ftracker.openbittorrent.com%3A80&amp;tr=udp%3A%2F%2Fopen.demonii.com%3A1337&amp;tr=udp%3A%2F%2Ftracker.coppersurfer.tk%3A6969&amp;tr=udp%3A%2F%2Fexodus.desync.com%3A6969","seeders":1,"leechers":0,"uploader":"juggs99","files":3,"time":1362962206,"description":"Format : AVI\nFormat/Info : Audio Video Interleave\nFile size : 706 MiB\nDuration : 1h 43mn\nOverall bit rate : 952 Kbps\nWriting library : VirtualDub build 32842/release\n\nVideo\nID : 0\nFormat : MPEG-4 Visual\nFormat profile : Advanced Simple@L5\nFormat settings, BVOP : 2\nFormat settings, QPel : No\nFormat settings, GMC : No warppoints\nFormat settings, Matrix : Default (H.263)\nMuxing mode : Packed bitstream\nCodec ID : XVID\nCodec ID/Hint : XviD\nDuration : 1h 43mn\nBit rate : 814 Kbps\nWidth : 640 pixels\nHeight : 272 pixels\nDisplay aspect ratio : 2.35:1\nFrame rate : 23.976 fps\nColor space : YUV\nChroma subsampling : 4:2:0\nBit depth : 8 bits\nScan type : Progressive\nCompression mode : Lossy\nBits/(Pixel*Frame) : 0.195\nStream size : 604 MiB (86%)\nWriting library : XviD 64\n\nAudio\nID : 1\nFormat : MPEG Audio\nFormat version : Version 1\nFormat profile : Layer 3\nCodec ID : 55\nCodec ID/Hint : MP3\nDuration : 1h 43mn\nBit rate mode : Constant\nBit rate : 128 Kbps\nChannel(s) : 2 channels\nSampling rate : 44.1 KHz\nCompression mode : Lossy\nStream size : 95.0 MiB (13%)\nAlignment : Split accross interleaves\nInterleave, duration : 42 ms (1.00 video frame)\nInterleave, preload duration : 500 ms\nWriting library : LAME3.99r\nEncoding settings : -m s -V 4 -q 3 -lowpass 17 -b 128\n\nPlot\nAn American in Indonesia teams up with a Muslim cop to track down a terrorist.\n\n &lt;a href=&quot;\nhttp://www.shotpix.com/images/74061077568216645599.png&quot; rel=&quot;nofollow&quot; target=&quot;_NEW&quot;&gt;\nhttp://www.shotpix.com/images/74061077568216645599.png&lt;/a&gt; &lt;a href=&quot;\nhttp://www.shotpix.com/images/95346994442215785809.png&quot; rel=&quot;nofollow&quot; target=&quot;_NEW&quot;&gt;\nhttp://www.shotpix.com/images/95346994442215785809.png&lt;/a&gt; &lt;a href=&quot;\nhttp://www.shotpix.com/images/02305448398681428987.png&quot; rel=&quot;nofollow&quot; target=&quot;_NEW&quot;&gt;\nhttp://www.shotpix.com/images/02305448398681428987.png&lt;/a&gt;","torrent":{"xt":"urn:btih:6bb9842c2c51409cde04e88ef8724dd9fb81e146","amp;dn":"java.heat.2013.BRRip+XViD+juggs","amp;tr":["udp%3A%2F%2Ftracker.openbittorrent.com%3A80","udp%3A%2F%2Fopen.demonii.com%3A1337","udp%3A%2F%2Ftracker.coppersurfer.tk%3A6969","udp%3A%2F%2Fexodus.desync.com%3A6969"],"infoHash":"6bb9842c2c51409cde04e88ef8724dd9fb81e146","infoHashBuffer":{"type":"Buffer","data":[107,185,132,44,44,81,64,156,222,4,232,142,248,114,77,217,251,129,225,70]},"announce":[],"urlList":[]}}